<svg width="24" height="24" viewBox="0 0 24 24" fill="none" xmlns="http://www.w3.org/2000/svg">
<path d="M10.1999 4.80005H13.7999C13.7999 4.32266 13.6103 3.86482 13.2727 3.52726C12.9351 3.18969 12.4773 3.00005 11.9999 3.00005C11.5225 3.00005 11.0647 3.18969 10.7271 3.52726C10.3895 3.86482 10.1999 4.32266 10.1999 4.80005ZM8.9999 4.80005C8.9999 4.0044 9.31597 3.24134 9.87858 2.67873C10.4412 2.11612 11.2043 1.80005 11.9999 1.80005C12.7956 1.80005 13.5586 2.11612 14.1212 2.67873C14.6838 3.24134 14.9999 4.0044 14.9999 4.80005H20.9999C21.159 4.80005 21.3116 4.86326 21.4242 4.97579C21.5367 5.08831 21.5999 5.24092 21.5999 5.40005C21.5999 5.55918 21.5367 5.71179 21.4242 5.82431C21.3116 5.93683 21.159 6.00005 20.9999 6.00005H19.7351L18.3023 18.4128C18.201 19.2903 17.7807 20.0999 17.1213 20.6875C16.462 21.2752 15.6096 21.6 14.7263 21.6H9.2735C8.39025 21.6 7.53784 21.2752 6.87847 20.6875C6.2191 20.0999 5.79878 19.2903 5.6975 18.4128L4.2647 6.00005H2.9999C2.84077 6.00005 2.68816 5.93683 2.57564 5.82431C2.46312 5.71179 2.3999 5.55918 2.3999 5.40005C2.3999 5.24092 2.46312 5.08831 2.57564 4.97579C2.68816 4.86326 2.84077 4.80005 2.9999 4.80005H8.9999ZM10.7999 9.60005C10.7999 9.44092 10.7367 9.28831 10.6242 9.17579C10.5116 9.06326 10.359 9.00005 10.1999 9.00005C10.0408 9.00005 9.88816 9.06326 9.77564 9.17579C9.66312 9.28831 9.5999 9.44092 9.5999 9.60005V16.8C9.5999 16.9592 9.66312 17.1118 9.77564 17.2243C9.88816 17.3368 10.0408 17.4 10.1999 17.4C10.359 17.4 10.5116 17.3368 10.6242 17.2243C10.7367 17.1118 10.7999 16.9592 10.7999 16.8V9.60005ZM13.7999 9.00005C13.6408 9.00005 13.4882 9.06326 13.3756 9.17579C13.2631 9.28831 13.1999 9.44092 13.1999 9.60005V16.8C13.1999 16.9592 13.2631 17.1118 13.3756 17.2243C13.4882 17.3368 13.6408 17.4 13.7999 17.4C13.959 17.4 14.1116 17.3368 14.2242 17.2243C14.3367 17.1118 14.3999 16.9592 14.3999 16.8V9.60005C14.3999 9.44092 14.3367 9.28831 14.2242 9.17579C14.1116 9.06326 13.959 9.00005 13.7999 9.00005Z" fill="#757575"/>
</svg>
