<svg width="24" height="24" viewBox="0 0 24 24" fill="none" xmlns="http://www.w3.org/2000/svg">
<path d="M15.7935 2.646C16.1586 2.28089 16.592 1.99128 17.0691 1.79368C17.5461 1.59609 18.0574 1.49438 18.5737 1.49438C19.0901 1.49438 19.6013 1.59609 20.0784 1.79368C20.5554 1.99128 20.9889 2.28089 21.354 2.646C21.7191 3.01111 22.0087 3.44456 22.2063 3.92159C22.4039 4.39863 22.5056 4.90991 22.5056 5.42625C22.5056 5.94259 22.4039 6.45388 22.2063 6.93091C22.0087 7.40795 21.7191 7.84139 21.354 8.2065L20.1855 9.375L14.625 3.8145L15.7935 2.646ZM13.5645 4.875L3.98547 14.454C3.42496 15.0154 3.0251 15.7167 2.82747 16.485L1.52247 21.564C1.49011 21.6904 1.49127 21.823 1.52583 21.9488C1.5604 22.0746 1.62717 22.1892 1.71956 22.2813C1.81196 22.3734 1.92677 22.4398 2.05267 22.4739C2.17857 22.5081 2.3112 22.5088 2.43747 22.476L7.51497 21.1725C8.28354 20.9756 8.98503 20.5756 9.54597 20.0145L19.125 10.4355L13.5645 4.875Z" fill="#757575"/>
</svg>
