<svg width="24" height="24" viewBox="0 0 24 24" fill="none" xmlns="http://www.w3.org/2000/svg">
<path d="M4 14C4.53043 14 5.03914 13.7893 5.41421 13.4142C5.78929 13.0391 6 12.5304 6 12C6 11.4696 5.78929 10.9609 5.41421 10.5858C5.03914 10.2107 4.53043 10 4 10C3.46957 10 2.96086 10.2107 2.58579 10.5858C2.21071 10.9609 2 11.4696 2 12C2 12.5304 2.21071 13.0391 2.58579 13.4142C2.96086 13.7893 3.46957 14 4 14Z" fill="#757575" stroke="#757575" stroke-width="2" stroke-linejoin="round"/>
<path d="M4 6C4.26522 6 4.51957 5.89464 4.70711 5.70711C4.89464 5.51957 5 5.26522 5 5C5 4.73478 4.89464 4.48043 4.70711 4.29289C4.51957 4.10536 4.26522 4 4 4C3.73478 4 3.48043 4.10536 3.29289 4.29289C3.10536 4.48043 3 4.73478 3 5C3 5.26522 3.10536 5.51957 3.29289 5.70711C3.48043 5.89464 3.73478 6 4 6ZM4 20C4.26522 20 4.51957 19.8946 4.70711 19.7071C4.89464 19.5196 5 19.2652 5 19C5 18.7348 4.89464 18.4804 4.70711 18.2929C4.51957 18.1054 4.26522 18 4 18C3.73478 18 3.48043 18.1054 3.29289 18.2929C3.10536 18.4804 3 18.7348 3 19C3 19.2652 3.10536 19.5196 3.29289 19.7071C3.48043 19.8946 3.73478 20 4 20Z" stroke="#757575" stroke-width="2" stroke-linejoin="round"/>
<path d="M10 12H22M10 19H22M10 5H22" stroke="#757575" stroke-width="2" stroke-linecap="round" stroke-linejoin="round"/>
</svg>
