<svg width="24" height="24" viewBox="0 0 24 24" fill="none" xmlns="http://www.w3.org/2000/svg">
<path d="M5.67011 9.91398L8.73211 5.77098C10.7111 3.09298 11.7011 1.75398 12.6241 2.03698C13.5471 2.31998 13.5471 3.96198 13.5471 7.24698V7.55698C13.5471 8.74198 13.5471 9.33398 13.9261 9.70498L13.9461 9.72498C14.3331 10.088 14.9491 10.088 16.1821 10.088C18.4021 10.088 19.5111 10.088 19.8861 10.761L19.9041 10.795C20.2581 11.478 19.6151 12.348 18.3301 14.085L15.2681 18.229C13.2881 20.907 12.2991 22.246 11.3761 21.963C10.4531 21.68 10.4531 20.038 10.4531 16.753V16.443C10.4531 15.258 10.4531 14.666 10.0741 14.295L10.0541 14.275C9.66711 13.912 9.05111 13.912 7.81811 13.912C5.59811 13.912 4.48911 13.912 4.11511 13.239L4.09611 13.205C3.74211 12.522 4.38511 11.653 5.67011 9.91498" fill="#AB9FF2"/>
</svg>
