<svg width="24" height="24" viewBox="0 0 24 24" fill="none" xmlns="http://www.w3.org/2000/svg">
<path fill-rule="evenodd" clip-rule="evenodd" d="M19.4944 3.133C19.716 2.99971 19.9806 2.95743 20.2327 3.01505C20.4848 3.07266 20.7047 3.22568 20.8464 3.442L21.8364 4.952C21.9655 5.14926 22.0207 5.38577 21.9923 5.61979C21.964 5.8538 21.8539 6.07027 21.6814 6.231L21.6784 6.235L21.6644 6.248L21.6074 6.301L21.3824 6.516C20.1375 7.72366 18.9302 8.96959 17.7624 10.252C15.5654 12.668 12.9564 15.83 11.2004 18.898C10.7104 19.754 9.51342 19.938 8.80342 19.199L2.31842 12.461C2.22549 12.3644 2.15292 12.2501 2.10504 12.1249C2.05716 11.9997 2.03493 11.8662 2.03969 11.7322C2.04445 11.5982 2.07609 11.4666 2.13274 11.3451C2.18938 11.2236 2.26987 11.1148 2.36942 11.025L4.32942 9.257C4.50167 9.10171 4.72253 9.01111 4.9542 9.00071C5.18588 8.99031 5.41396 9.06076 5.59942 9.2L8.90843 11.681C14.0774 6.584 17.0084 4.628 19.4944 3.133Z" fill="#2D9687"/>
</svg>
